# xmcd
#
# Track frame offsets: 
#        150
#        27075
#        51846
#        85788
#        111765
#        132080
#
# Disc length: 2100 seconds
#
# Revision: 0
# Processed by: cddbd v1.5.2PL0 Copyright (c) Steve Scherf et al.
# Submitted via: ExactAudioCopy v0.99pb5
#
DISCID=42083206
DTITLE=Mat Troi Do - Tri Ky
DYEAR=2013
DGENRE=World Music
TTITLE0=Chau Van
TTITLE1=Ly Chim Quyen
TTITLE2=Ly Muoi Thuong
TTITLE3=Thenh Thenh Oh Oi
TTITLE4=Ly Chuon Chuon
TTITLE5=Tran Ai Tri Ky
EXTD=
EXTT0=
EXTT1=
EXTT2=
EXTT3=
EXTT4=
EXTT5=
PLAYORDER=
